<svg width="107" height="214" viewBox="0 0 107 214" fill="none" xmlns="http://www.w3.org/2000/svg">
<path id="Ellipse 7" d="M-1.69836e-05 214C14.0514 214 27.9653 211.232 40.9471 205.855C53.929 200.478 65.7245 192.596 75.6604 182.66C85.5963 172.725 93.4779 160.929 98.8551 147.947C104.232 134.965 107 121.051 107 107C107 92.9485 104.232 79.0347 98.8551 66.0529C93.4779 53.071 85.5963 41.2754 75.6604 31.3396C65.7245 21.4037 53.929 13.5221 40.9471 8.14488C27.9653 2.76763 14.0514 -5.29133e-06 -1.52588e-05 -4.67712e-06L-1.23065e-05 107L-1.69836e-05 214Z" fill="#FFCC72"/>
</svg>
