<svg width="107" height="214" viewBox="0 0 107 214" fill="none" xmlns="http://www.w3.org/2000/svg">
<path id="Ellipse 8" d="M107 -1.22743e-06C92.9486 -3.07006e-06 79.0347 2.76763 66.0529 8.14489C53.0711 13.5221 41.2755 21.4037 31.3396 31.3396C21.4037 41.2754 13.5222 53.071 8.14491 66.0529C2.76765 79.0347 1.52598e-05 92.9486 1.40314e-05 107C1.28029e-05 121.051 2.76765 134.965 8.1449 147.947C13.5222 160.929 21.4037 172.725 31.3396 182.66C41.2755 192.596 53.071 200.478 66.0529 205.855C79.0347 211.232 92.9486 214 107 214L107 107L107 -1.22743e-06Z" fill="#01CC88"/>
</svg>
