<svg width="54" height="178" viewBox="0 0 54 178" fill="none" xmlns="http://www.w3.org/2000/svg">
<path d="M18.6107 1.59961C18.6107 1.59961 32.3226 8.66469 33.6499 19.3212C34.9771 29.9778 22.0897 29.5338 23.4169 40.1904C24.7441 50.8469 37.1289 47.2554 38.4561 57.912C39.7833 68.5685 26.896 68.1246 28.2232 78.7811C29.5504 89.4376 41.9352 85.8462 43.2624 96.5027C44.5896 107.159 31.7022 106.715 33.0294 117.372C34.3567 128.028 46.7414 124.437 48.0686 135.093C49.3959 145.75 36.5085 145.306 37.8357 155.963C39.1629 166.619 52.8749 173.684 52.8749 173.684" stroke="#1F2860"/>
<path d="M12.2928 2.38634C12.2928 2.38634 26.0048 9.45142 27.332 20.108C28.6592 30.7645 15.7718 30.3205 17.099 40.9771C18.4263 51.6336 30.811 48.0422 32.1382 58.6987C33.4655 69.3552 20.5781 68.9113 21.9053 79.5678C23.2325 90.2244 35.6173 86.6329 36.9445 97.2894C38.2717 107.946 25.3844 107.502 26.7116 118.159C28.0388 128.815 40.4236 125.224 41.7508 135.88C43.078 146.537 30.1906 146.093 31.5178 156.749C32.845 167.406 46.557 174.471 46.557 174.471" stroke="#1F2860"/>
<path d="M5.97491 3.17307C5.97491 3.17307 19.6869 10.2381 21.0141 20.8947C22.3413 31.5512 9.45396 31.1073 10.7812 41.7638C12.1084 52.4204 24.4932 48.8289 25.8204 59.4854C27.1476 70.142 14.2602 69.698 15.5874 80.3546C16.9147 91.0111 29.2994 87.4196 30.6266 98.0762C31.9539 108.733 19.0665 108.289 20.3937 118.945C21.7209 129.602 34.1057 126.01 35.4329 136.667C36.7601 147.323 23.8728 146.88 25.2 157.536C26.5272 168.193 40.2392 175.258 40.2392 175.258" stroke="#1F2860"/>
<path d="M0.805481 3.81741C0.805481 3.81741 14.5175 10.8825 15.8447 21.539C17.1719 32.1956 4.28453 31.7516 5.61174 42.4082C6.93896 53.0647 19.3237 49.4732 20.6509 60.1298C21.9782 70.7863 9.09079 70.3424 10.418 80.9989C11.7452 91.6554 24.13 88.064 25.4572 98.7205C26.7844 109.377 13.8971 108.933 15.2243 119.59C16.5515 130.246 28.9363 126.655 30.2635 137.311C31.5907 147.968 18.7033 147.524 20.0305 158.18C21.3577 168.837 35.0697 175.902 35.0697 175.902" stroke="#1F2860"/>
</svg>
