<svg width="48" height="48" viewBox="0 0 48 48" fill="none" xmlns="http://www.w3.org/2000/svg">
<g id="lock 1" clip-path="url(#clip0_2_648)">
<g id="Group">
<g id="Group_2">
<path id="Vector" d="M41.1428 17.1429H39.4285V15.4286C39.4285 6.9076 32.5209 0 23.9999 0C15.479 0 8.57136 6.9076 8.57136 15.4286V17.1429H6.85714C5.91033 17.1429 5.14282 17.9104 5.14282 18.8572L5.14282 46.2857C5.14282 47.2325 5.91033 48 6.85714 48H41.1428C42.0896 48 42.8571 47.2325 42.8571 46.2857V18.8571C42.8571 17.9104 42.0896 17.1429 41.1428 17.1429ZM28.8487 32.5501C28.3309 34.0148 27.1788 35.1668 25.7142 35.6846V39.4286C25.7142 40.3754 24.9467 41.1429 23.9999 41.1429C23.0531 41.1429 22.2856 40.3754 22.2856 39.4286V35.6846C19.6077 34.7378 18.2044 31.7994 19.1512 29.1215C20.098 26.4436 23.0363 25.0403 25.7142 25.9871C28.3921 26.9339 29.7955 29.8722 28.8487 32.5501ZM35.9999 17.1429H12V15.4286C12 8.80111 17.3726 3.42854 24 3.42854C30.6275 3.42854 35.9999 8.80111 35.9999 15.4286V17.1429Z" fill="#FFC2C2"/>
</g>
</g>
</g>
<defs>
<clipPath id="clip0_2_648">
<rect width="48" height="48" fill="white"/>
</clipPath>
</defs>
</svg>
