<svg width="11" height="14" viewBox="0 0 11 14" fill="none" xmlns="http://www.w3.org/2000/svg">
<path d="M5.5814 8.35004V9.60628C5.07624 9.41394 4.5356 9.35494 4.00488 9.43425C3.47416 9.51355 2.96886 9.72883 2.5314 10.062C2.09395 10.3952 1.73712 10.8366 1.49088 11.349C1.24464 11.8615 1.11618 12.4301 1.11628 13.0072L1.44255e-07 13.0066C-0.000173087 12.2726 0.155677 11.5483 0.455609 10.8892C0.75554 10.2301 1.19159 9.65372 1.73035 9.20418C2.26911 8.75464 2.89628 8.44388 3.56381 8.29573C4.23133 8.14757 4.92149 8.16594 5.5814 8.34944V8.35004ZM4.46512 7.59749C2.61488 7.59749 1.11628 5.98361 1.11628 3.99105C1.11628 1.99849 2.61488 0.384613 4.46512 0.384613C6.31535 0.384613 7.81395 1.99849 7.81395 3.99105C7.81395 5.98361 6.31535 7.59749 4.46512 7.59749ZM4.46512 6.39535C5.69861 6.39535 6.69768 5.31943 6.69768 3.99105C6.69768 2.66268 5.69861 1.58676 4.46512 1.58676C3.23163 1.58676 2.23256 2.66268 2.23256 3.99105C2.23256 5.31943 3.23163 6.39535 4.46512 6.39535ZM8.93023 10.0018H10.6047V11.2039H8.93023V13.3077L6.13954 10.6029L8.93023 7.89803V10.0018Z" fill="#1DC7AC"/>
</svg>
