<svg width="10" height="13" viewBox="0 0 10 13" fill="none" xmlns="http://www.w3.org/2000/svg">
<path d="M5.24313 7.96542V9.22167C4.76859 9.02933 4.26071 8.97033 3.76216 9.04963C3.2636 9.12893 2.78893 9.34422 2.37799 9.6774C1.96705 10.0106 1.63184 10.452 1.40053 10.9644C1.16921 11.4769 1.04853 12.0455 1.04863 12.6225L1.35512e-07 12.6219C-0.000162597 11.888 0.146242 11.1637 0.427996 10.5046C0.70975 9.84551 1.11938 9.26911 1.62548 8.81957C2.13159 8.37003 2.72075 8.05927 3.34782 7.91111C3.97488 7.76296 4.62321 7.78193 5.24313 7.96542ZM4.1945 7.21288C2.45641 7.21288 1.04863 5.599 1.04863 3.60644C1.04863 1.61388 2.45641 0 4.1945 0C5.9326 0 7.34038 1.61388 7.34038 3.60644C7.34038 5.599 5.9326 7.21288 4.1945 7.21288ZM4.1945 6.01073C5.35324 6.01073 6.29176 4.93481 6.29176 3.60644C6.29176 2.27807 5.35324 1.20215 4.1945 1.20215C3.03577 1.20215 2.09725 2.27807 2.09725 3.60644C2.09725 4.93481 3.03577 6.01073 4.1945 6.01073ZM9.86364 10.1152L9.88732 10.2357L9.96195 10.6152L9.86364 10.1152L9.91519 10.4536L9.86364 10.6152V10.1152Z" fill="#FAAD39"/>
</svg>
