<svg width="375" height="338" viewBox="0 0 375 338" fill="none" xmlns="http://www.w3.org/2000/svg">
<path d="M256.945 337.751C309.327 339.838 387.067 304.762 387.067 304.762C387.067 304.762 425.811 246.031 439.15 203.672C457.41 145.687 474.399 104.118 450.106 48.3913C423.989 -11.52 378.092 -31.8246 315.721 -51.3526C276.189 -63.7301 210.109 -61.2512 210.109 -61.2512L-161.987 238.796C-161.987 238.796 -94.6131 325.727 -32.6247 332.313C25.8484 338.524 48.2921 276.818 107.091 276.173C170.357 275.48 193.725 335.231 256.945 337.751Z" fill="#060E40"/>
<path d="M256.945 337.751C309.327 339.838 387.067 304.762 387.067 304.762C387.067 304.762 425.811 246.031 439.15 203.672C457.41 145.687 474.399 104.118 450.106 48.3913C423.989 -11.52 378.092 -31.8246 315.721 -51.3526C276.189 -63.7301 210.109 -61.2512 210.109 -61.2512L-161.987 238.796C-161.987 238.796 -94.6131 325.727 -32.6247 332.313C25.8484 338.524 48.2921 276.818 107.091 276.173C170.357 275.48 193.725 335.231 256.945 337.751Z" fill="#030E4A" fill-opacity="0.8"/>
</svg>
